<?xml version="1.0" standalone="no"?>
<!DOCTYPE svg PUBLIC "-//W3C//DTD SVG 20010904//EN"
 "http://www.w3.org/TR/2001/REC-SVG-20010904/DTD/svg10.dtd">
<svg version="1.0" xmlns="http://www.w3.org/2000/svg"
 width="260.000000pt" height="260.000000pt" viewBox="0 0 260.000000 260.000000"
 preserveAspectRatio="xMidYMid meet">
<metadata>
Created by potrace 1.11, written by Peter Selinger 2001-2013
</metadata>
<g transform="translate(0.000000,260.000000) scale(0.100000,-0.100000)"
fill="#000000" stroke="none">
<path d="M541 2589 c-239 -47 -422 -207 -499 -433 l-27 -81 0 -775 0 -775 27
-81 c67 -195 217 -345 412 -412 l81 -27 765 0 765 0 81 27 c195 67 345 217
412 412 l27 81 0 775 0 775 -27 81 c-67 195 -217 345 -412 412 l-81 27 -740 2
c-407 0 -760 -3 -784 -8z m1497 -756 l-3 -318 -35 0 -35 0 -3 305 c-1 168 0
310 3 317 2 7 20 13 40 13 l35 0 -2 -317z m-1537 254 c46 -19 96 -78 105 -122
17 -93 -22 -187 -93 -220 -21 -10 -70 -20 -110 -23 l-73 -5 0 -103 0 -104 -45
0 -45 0 0 301 0 302 113 -6 c63 -3 129 -12 148 -20z m437 -244 c29 -22 72 -79
72 -97 0 -6 -56 -33 -125 -60 l-125 -49 21 -23 c27 -29 65 -35 114 -18 38 13
41 12 64 -10 28 -28 22 -43 -25 -62 -138 -58 -284 50 -261 193 20 121 174 194
265 126z m377 8 c72 -33 105 -86 105 -167 0 -160 -202 -236 -312 -118 -133
142 30 367 207 285z m445 9 c41 -11 94 -61 109 -103 30 -80 -5 -184 -75 -224
-51 -29 -126 -31 -171 -3 l-33 20 0 -101 0 -100 -37 3 -38 3 -3 253 -2 252 40
0 c34 0 40 -3 40 -22 0 -20 1 -20 18 -5 38 35 91 44 152 27z m638 -17 c29 -22
72 -79 72 -97 0 -6 -56 -33 -125 -60 l-125 -49 21 -23 c27 -29 65 -35 114 -18
38 13 41 12 64 -10 28 -28 22 -43 -25 -62 -138 -58 -284 50 -261 193 20 121
174 194 265 126z m-750 -970 l-3 -318 -33 -3 c-27 -3 -35 1 -39 17 -5 19 -5
19 -36 0 -44 -27 -121 -25 -172 4 -120 67 -109 260 19 318 53 24 102 24 149
-1 l37 -20 0 160 0 160 40 0 40 0 -2 -317z m-1058 227 l0 -50 -130 0 -130 0 0
-80 0 -80 115 0 115 0 0 -45 0 -45 -115 0 -115 0 0 -125 0 -125 -45 0 -45 0 0
300 0 300 175 0 175 0 0 -50z m168 -42 c34 -34 -14 -102 -56 -79 -28 15 -35
40 -17 67 17 26 53 32 73 12z m389 -168 c44 -27 55 -71 51 -215 l-3 -120 -37
-3 -38 -3 0 120 c0 108 -2 123 -20 141 -22 22 -57 26 -93 9 -41 -19 -52 -48
-57 -159 l-5 -105 -35 0 -35 0 -3 173 -2 172 34 0 c31 0 35 -4 41 -32 7 -31 7
-31 24 -10 40 52 122 67 178 32z m851 -7 c29 -22 72 -79 72 -97 0 -6 -56 -33
-125 -60 l-125 -49 21 -23 c27 -29 65 -35 114 -18 38 13 41 12 64 -10 28 -28
22 -43 -25 -62 -138 -58 -284 50 -261 193 20 121 174 194 265 126z m352 15 c0
-7 -3 -30 -6 -50 -5 -30 -11 -38 -28 -38 -32 0 -85 -36 -91 -62 -3 -13 -6 -61
-7 -108 l-3 -85 -35 0 -35 0 -3 173 -2 172 34 0 c30 0 35 -4 41 -31 l7 -31 21
20 c26 23 77 51 95 52 6 0 12 -6 12 -12z m-1592 -170 l-3 -173 -35 0 -35 0 -3
173 -2 172 40 0 40 0 -2 -172z"/>
<path d="M330 1909 l0 -102 60 6 c91 10 120 37 120 113 0 57 -38 84 -116 84
l-64 0 0 -101z"/>
<path d="M781 1759 c-17 -17 -31 -39 -31 -50 0 -18 2 -18 53 2 28 12 64 27 80
33 32 12 34 22 8 36 -37 19 -78 12 -110 -21z"/>
<path d="M1171 1761 c-89 -83 22 -224 124 -157 36 24 55 71 44 110 -21 76
-110 101 -168 47z"/>
<path d="M1644 1779 c-26 -13 -54 -60 -54 -91 0 -40 36 -86 76 -97 82 -23 147
45 124 129 -16 60 -86 88 -146 59z"/>
<path d="M2241 1759 c-17 -17 -31 -39 -31 -50 0 -18 2 -18 53 2 28 12 64 27
80 33 32 12 34 22 8 36 -37 19 -78 12 -110 -21z"/>
<path d="M1411 816 c-30 -17 -50 -53 -51 -91 -1 -98 139 -136 190 -52 23 37
25 65 8 102 -22 49 -96 69 -147 41z"/>
<path d="M1841 799 c-17 -17 -31 -39 -31 -50 0 -18 2 -18 53 2 28 12 64 27 80
33 32 12 34 22 8 36 -37 19 -78 12 -110 -21z"/>
</g>
</svg>
